<mxfile host="app.diagrams.net" modified="2023-10-26T09:22:00.596Z" agent="Mozilla/5.0 (Windows NT 10.0; Win64; x64) AppleWebKit/537.36 (KHTML, like Gecko) Chrome/118.0.0.0 Safari/537.36" etag="o0E9H95EERPGiI0fH5E0" version="22.0.8" type="github">
  <diagram name="Page-1" id="uwX-0Uft41n9snrs1WHI">
    <mxGraphModel dx="819" dy="433" grid="1" gridSize="10" guides="1" tooltips="1" connect="1" arrows="1" fold="1" page="1" pageScale="1" pageWidth="827" pageHeight="1169" math="1" shadow="0">
      <root>
        <mxCell id="0" />
        <mxCell id="1" parent="0" />
        <mxCell id="ijZUeoPcKcF7YOUvLgaa-1" value="Start" style="rounded=1;whiteSpace=wrap;html=1;" vertex="1" parent="1">
          <mxGeometry x="354" y="40" width="120" height="60" as="geometry" />
        </mxCell>
        <mxCell id="ijZUeoPcKcF7YOUvLgaa-3" value="" style="endArrow=classic;html=1;rounded=0;exitX=0.5;exitY=1;exitDx=0;exitDy=0;" edge="1" parent="1" source="ijZUeoPcKcF7YOUvLgaa-1">
          <mxGeometry width="50" height="50" relative="1" as="geometry">
            <mxPoint x="390" y="220" as="sourcePoint" />
            <mxPoint x="414" y="140" as="targetPoint" />
          </mxGeometry>
        </mxCell>
        <mxCell id="ijZUeoPcKcF7YOUvLgaa-5" value="TestCases[] = {-7834, -2, 0, 2, 4387}&lt;br&gt;`x`&lt;br&gt;z1&lt;br&gt;z2&lt;br&gt;denominator&amp;nbsp;" style="shape=parallelogram;perimeter=parallelogramPerimeter;whiteSpace=wrap;html=1;fixedSize=1;" vertex="1" parent="1">
          <mxGeometry x="280" y="140" width="280" height="90" as="geometry" />
        </mxCell>
        <mxCell id="ijZUeoPcKcF7YOUvLgaa-6" value="count = 0" style="rounded=0;whiteSpace=wrap;html=1;" vertex="1" parent="1">
          <mxGeometry x="360" y="260" width="120" height="60" as="geometry" />
        </mxCell>
        <mxCell id="ijZUeoPcKcF7YOUvLgaa-7" value="" style="endArrow=classic;html=1;rounded=0;exitX=0.475;exitY=1;exitDx=0;exitDy=0;exitPerimeter=0;entryX=0.442;entryY=-0.05;entryDx=0;entryDy=0;entryPerimeter=0;" edge="1" parent="1" source="ijZUeoPcKcF7YOUvLgaa-5" target="ijZUeoPcKcF7YOUvLgaa-6">
          <mxGeometry width="50" height="50" relative="1" as="geometry">
            <mxPoint x="390" y="220" as="sourcePoint" />
            <mxPoint x="440" y="170" as="targetPoint" />
          </mxGeometry>
        </mxCell>
        <mxCell id="ijZUeoPcKcF7YOUvLgaa-8" value="`x` = TestCasesa[count]&lt;br&gt;denominator = `sqrt((x^2)-4)`" style="rounded=0;whiteSpace=wrap;html=1;" vertex="1" parent="1">
          <mxGeometry x="320" y="350" width="250" height="60" as="geometry" />
        </mxCell>
        <mxCell id="ijZUeoPcKcF7YOUvLgaa-10" value="" style="rhombus;whiteSpace=wrap;html=1;" vertex="1" parent="1">
          <mxGeometry x="60" y="380" width="80" height="80" as="geometry" />
        </mxCell>
        <mxCell id="ijZUeoPcKcF7YOUvLgaa-11" value="" style="rhombus;whiteSpace=wrap;html=1;" vertex="1" parent="1">
          <mxGeometry x="60" y="270" width="80" height="80" as="geometry" />
        </mxCell>
        <mxCell id="ijZUeoPcKcF7YOUvLgaa-12" value="Print:&quot;\nInput Nr: &quot;&lt;br&gt;Print: count +1&lt;br&gt;Print: &quot;. Input value is: &quot;&lt;br&gt;Print: TestCases[count]" style="shape=parallelogram;perimeter=parallelogramPerimeter;whiteSpace=wrap;html=1;fixedSize=1;" vertex="1" parent="1">
          <mxGeometry x="310" y="440" width="220" height="60" as="geometry" />
        </mxCell>
      </root>
    </mxGraphModel>
  </diagram>
</mxfile>
